<svg width="512" height="512" viewBox="0 0 512 512" fill="none" xmlns="http://www.w3.org/2000/svg">
  <defs>
    <linearGradient id="bg" x1="0" y1="0" x2="512" y2="512" gradientUnits="userSpaceOnUse">
      <stop stop-color="#8B0000"/>
      <stop offset="1" stop-color="#E63946"/>
    </linearGradient>

    <filter id="shadow" x="0" y="0" width="200%" height="200%">
      <feDropShadow dx="0" dy="10" stdDeviation="12" flood-opacity="0.25"/>
    </filter>
  </defs>

  <!-- Background -->
  <rect width="512" height="512" rx="120" fill="url(#bg)"/>

  <!-- Blood Drop -->
  <path
    d="M256 90C256 90 150 220 150 315C150 395 197 442 256 442C315 442 362 395 362 315C362 220 256 90 256 90Z"
    fill="white"
    filter="url(#shadow)"
  />

  <!-- Medical Cross -->
  <rect x="232" y="210" width="48" height="140" rx="12" fill="#E63946"/>
  <rect x="186" y="256" width="140" height="48" rx="12" fill="#E63946"/>

  <!-- Network Pulse Line -->
  <path
    d="M120 390H190L220 340L260 420L300 300L330 360H392"
    stroke="white"
    stroke-width="16"
    stroke-linecap="round"
    stroke-linejoin="round"
    opacity="0.85"
  />
</svg>

